<?xml version="1.0" encoding="UTF-8"?>
<svg id="Layer_1" data-name="Layer 1" xmlns="http://www.w3.org/2000/svg" version="1.1" viewBox="0 0 96.8 26.5">
  <defs>
    <style>
      .cls-1 {
        fill: #cfc3c2;
      }

      .cls-1, .cls-2, .cls-3, .cls-4, .cls-5, .cls-6, .cls-7, .cls-8, .cls-9, .cls-10, .cls-11, .cls-12, .cls-13, .cls-14, .cls-15, .cls-16, .cls-17, .cls-18, .cls-19, .cls-20, .cls-21, .cls-22, .cls-23, .cls-24, .cls-25, .cls-26, .cls-27, .cls-28, .cls-29, .cls-30, .cls-31, .cls-32, .cls-33, .cls-34, .cls-35, .cls-36 {
        stroke-width: 0px;
      }

      .cls-2 {
        fill: #cf0c14;
      }

      .cls-3 {
        fill: #cf0a11;
      }

      .cls-4 {
        fill: #d1151b;
      }

      .cls-5 {
        fill: #d01219;
      }

      .cls-6 {
        fill: #cfc8c8;
      }

      .cls-7 {
        fill: #cec5c5;
      }

      .cls-8 {
        fill: #d21921;
      }

      .cls-9 {
        fill: #cec8c8;
      }

      .cls-10 {
        fill: #d83c43;
      }

      .cls-11 {
        fill: #e5a6a6;
      }

      .cls-12 {
        fill: #cf1018;
      }

      .cls-13 {
        fill: #d1171e;
      }

      .cls-14 {
        fill: #d21d24;
      }

      .cls-15 {
        fill: #d00d14;
      }

      .cls-16 {
        fill: #d01118;
      }

      .cls-17 {
        fill: #d6c1c4;
      }

      .cls-18 {
        fill: #d0343c;
      }

      .cls-19 {
        fill: #cec7c7;
      }

      .cls-20 {
        fill: #cf0c13;
      }

      .cls-21 {
        fill: #cfc7c7;
      }

      .cls-22 {
        fill: #d32831;
      }

      .cls-23 {
        fill: #fdfbfb;
      }

      .cls-24 {
        fill: #cdcaca;
      }

      .cls-25 {
        fill: #d11018;
      }

      .cls-26 {
        fill: #d00e15;
      }

      .cls-27 {
        fill: #f5f7f6;
      }

      .cls-28 {
        fill: #d12027;
      }

      .cls-29 {
        fill: #cf0d15;
      }

      .cls-30 {
        fill: #cec9c9;
      }

      .cls-31 {
        fill: #cdc9c9;
      }

      .cls-32 {
        fill: #f7edea;
      }

      .cls-33 {
        fill: #fcfbfa;
      }

      .cls-34 {
        fill: #e6e6e6;
      }

      .cls-35 {
        fill: #cf0b12;
      }

      .cls-36 {
        fill: #d3aeb0;
      }
    </style>
  </defs>
  <path class="cls-34" d="M97.3,19.2h-.6.5c0,.1,0,0,0,0Z"/>
  <path class="cls-20" d="M96.4,9.1c-.2.6-.3,1.1-.5,1.6,1,.9,0,2.2.5,3.4v2.4c-.3-1.1-.8-1.9-2.2-1.9,0-.5,0-.9.2-1.3h0c-.2-.1-.4-.3-.6-.5v-6.8c0-.2,0-.3-.2-.5h-8c-.3,0-.5,0-.8,0h-1.2c.2-.4.4-.8.6-1.1h-.2c0-.5.3-.9.4-1.5,1.2-.1,2.3-.1,3.5-.1h5c1.5,0,2.9,0,3.8,1.7-.6,1,0,1.9,0,2.9,0,.3-.2.4-.3.6v-.5c0,0,0-.2-.2-.3h-.3c0,.5,0,1.1-.2,1.6,0,0,.2,0,.3,0,.3-.2.5-.3.8-.5v.8M94.3,12v-.5c0,0-.2.1-.3.2,0,.1.2.2.4.4h0Z"/>
  <path class="cls-3" d="M93.6,12.9c.2.1.3.3.6.4h0c0,.4,0,.8,0,1.2,1.4,0,1.9.8,2.2,2v.2c-.6.6-1,1.2-1.5,1.8l.2.2c.2,0,.4-.1.6-.2v.2c.3,0,.5.2.8.2h0v4.9c-.2.7-.5,1.2-.7,1.9h-7.9c0-.2-.3-.4-.2-.4,0-.2.4-.2.4-.4.2-.7.3-1.4.6-2.1h4.2c.6.1.8-.1.8-.6v-9.3h0Z"/>
  <path class="cls-10" d="M96.4,19c-.3,0-.6,0-.8-.1v-.2c-.2,0-.4.1-.6.2l-.2-.2c.5-.6.9-1.1,1.4-1.7,0,.7,0,1.3,0,2.1h0Z"/>
  <path class="cls-10" d="M96.4,8.2c-.3.3-.5.4-.8.6,0,0-.2,0-.3,0,0-.5,0-1.1.2-1.6h.3s.2.2.2.3v.5c0-.3.2-.4.3-.6v1h.1Z"/>
  <path class="cls-34" d="M96.8,9.4h-.2.2Z"/>
  <path class="cls-15" d="M0,14.3c0-1.3.1-2.5.2-3.6,0-.5-.1-1-.2-1.5V2.6h8.9c1.3,0,2.6.2,3.8.3.2.3.5.5.7.8,0,0,.1-.1.2-.2-.1-.3-.3-.6-.4-.9h.4s.1,0,.2.1h.4s.2.1.2.2h0v1.6c.3-.3.4-.5.7-.7,0,0,.2,0,.1,0,0,.2.2.4.2.6h0c0,.3-.2.5-.2.8h-1.8c0,0,0-.2-.1-.3,0,0,0,.2-.1.3h-.5s-.1,0-.2-.2v-1.5c-.3.5-.5,1-.8,1.4-.2,0-.4-.2-.6-.2-.5,0-1,0-1.5-.2h0c0,0-.1.3-.2.4-.3,0-.6.2-.9.3H3.2c-.2.9-.2,1.7-.3,2.6v5.6h0v9.1h5.8c1,0,1.8,0,2.7.1h.5l.3.6c-.6,0-1.1.2-1.6.2v-.3c-.2.3-.4.5-.7.8,0,.2-.1.4-.2.7v.8h-1.1c-.8-.1-1.5-.2-2.2-.3-.8,0-1.6.2-2.5.3-.3,0-.6,0-1-.1,0-.1-.2-.2-.2-.2,0,0,0,.2,0,.3h-1.2c.2-.4.6-.7.9-1,0,0,0,.2.2.5,0,0,.3-.2.4-.3-.2-.4-.2-1-.5-1.3-.7-.8-1.5-1.5-2.3-2.2C0,20.4,0,19.6-.1,18.8.5,17.6,0,16.4,0,15.2v-1.3M13.4,4.5v-.3s-.2.2-.3.3c.1,0,.2.2.4.3.2,0,.3-.3.5-.4,0,0-.1-.1-.2-.2-.1.2-.2.3-.3.4M15,5h.2v-.2s-.1,0-.2.2Z"/>
  <path class="cls-28" d="M0,21.6c.7.7,1.5,1.3,2.2,2.1.3.3.4.8.5,1.3,0,0-.3.2-.4.3,0-.2-.2-.4-.2-.5-.4.4-.7.7-1,1H0v-4.3h0Z"/>
  <path class="cls-34" d="M7.6,18.4h0,0Z"/>
  <path class="cls-28" d="M2.5,25.9v-.3s0,.1,0,.2h-.2.1Z"/>
  <path class="cls-26" d="M84.1,2.8c0,.5-.3.9-.4,1.4h.2c-.2.4-.4.7-.7,1.1-.2,0-.3,0-.5,0h-18.7c-.5,0-.8,0-1.2,0,.7-1.1-1.2-.5-.7-1.4-.4.2-.7.3-1,.4,0,.3,0,.7,0,1.1h-6.3c.8-.5,1.6-.8,2.4-1,0,.3,0,.5,0,.7h.3c0-.2.9-.5-.2-.8.4-1.3-.9-1.1-1.2-1.7h2.2c.8.1,1.5.2,2.2.4,0,0,.2,0,.3,0v-.4c.8,0,1.5-.1,2.4-.1h5c.8,0,1.4.3,2.2,0,.7-.3,1.7,0,2.6,0h9.9c.5.1.9.2,1.2.2M58.3,3.1s0,0-.2-.2h0s0,0,.2,0h0Z"/>
  <path class="cls-11" d="M93.3,9.5c0-.4,0-.7,0-1.1v1.6s0-.3-.2-.5h0Z"/>
  <path class="cls-11" d="M93.5,12v-1.1,1.1Z"/>
  <path class="cls-11" d="M94.2,12c-.2-.1-.3-.2-.4-.4,0,0,.2-.1.3-.2v.5h0Z"/>
  <path class="cls-30" d="M85.3,5.5h-.7.7Z"/>
  <path class="cls-11" d="M93.5,6.1s0-.2-.2-.3c0,0,0,.2.2.3Z"/>
  <path class="cls-3" d="M94.2,13.4h0Z"/>
  <path class="cls-1" d="M91.6,23h.2-.2Z"/>
  <path class="cls-20" d="M15.4,3.9h-.2v-1c.4.4.6.6.8.9v-.8h0c.3,0,.4,0,.7-.2h1.8c.5,0,.8,0,1.2.2.9.2,1.7.2,2.7.3h.4v.2c-.1.3-.2.6-.3.7.3.2.6.4.7.6-1,.4-2,.7-3.1,1.1-.4,0-.7,0-1,0-.2,0-.4,0-.7,0-.7-.2-1.2-.3-1.9-.5-.3-.2-.6-.4-.9-.7h0c0-.2-.1-.4-.2-.6M21.5,3.8c0-.1,0-.2.1-.3l-1,.2v.3c.2,0,.5-.1.8-.2h.1Z"/>
  <path class="cls-8" d="M11.7,25.9h-1.9c-.1-.3-.1-.5,0-.8.4,0,.6.2.9.2,0-.2,0-.4-.1-.6s-.3-.3-.4-.4h-.2c.2-.3.4-.5.6-.8v.3c.5,0,1-.1,1.6-.2,0,0,.1,0,.1.1-.2.8-.4,1.4-.6,2.1h0Z"/>
  <path class="cls-12" d="M12.5,5.4q0,0-.2,0h-1.2c-.4,0-.7,0-1.1,0s-.4,0-.6-.2c0,0,0-.2.2-.3h.1c.5,0,1,0,1.5.2.2,0,.3,0,.6.2.3-.5.5-.9.8-1.4v1.5h0Z"/>
  <path class="cls-12" d="M14.6,3.1c.4,0,.9-.2,1.4-.3,0,.3.1.6.1.9-.2-.2-.5-.5-.8-.9,0,.4,0,.7-.1,1-.2.3-.3.5-.6.8v-1.6h0Z"/>
  <path class="cls-28" d="M10.5,24.8c0,.2,0,.4.1.6-.3,0-.6-.2-.9-.3v-.7h.2c.2.2.3.3.5.3h0Z"/>
  <path class="cls-12" d="M12.7,2.9c.1,0,.2-.2.4-.3.2.3.3.6.5.9,0,0-.1.1-.2.2-.2-.2-.5-.5-.7-.8Z"/>
  <path class="cls-12" d="M16.5,5.3c-.3,0-.6,0-1,.2,0-.2,0-.5.1-.8.3,0,.5.4.9.6Z"/>
  <path class="cls-11" d="M6.1,5.5h-1.6,1.6Z"/>
  <path class="cls-12" d="M13.4,4.6l.3-.5s.1.1.2.2c-.2.1-.3.3-.5.3h0Z"/>
  <path class="cls-12" d="M15.4,4c.1.1.2.3.3.5,0-.1-.2-.3-.3-.5Z"/>
  <path class="cls-11" d="M2.9,9.1s0,0,.2,0c0,.3,0,.5,0,.8v-1h-.1Z"/>
  <path class="cls-11" d="M6.5,23h.8-.8Z"/>
  <path class="cls-12" d="M13.4,4.6c-.1,0-.2-.1-.3-.2,0,0,.2-.2.3-.3v.4h0Z"/>
  <path class="cls-8" d="M12.3,23.7c-.1-.2-.2-.3-.4-.6h0c.6,0,.8.2.4.7h0Z"/>
  <path class="cls-36" d="M13.4,5.5h-.1v-.3s0,0,.1.3Z"/>
  <path class="cls-11" d="M2.9,16.1v.5-.5Z"/>
  <path class="cls-11" d="M3.8,5.7h-.4.5s0,0,0,.2v-.2Z"/>
  <path class="cls-12" d="M15,5s.1,0,.2,0v.2h-.2Z"/>
  <path class="cls-36" d="M13.7,5.7h0c.2,0,.3,0,.6,0,0,0-.3,0-.5.2h-.1Z"/>
  <path class="cls-36" d="M15.3,5.5h-.3.3Z"/>
  <path class="cls-36" d="M7.8,5.5h-.5.5Z"/>
  <path class="cls-11" d="M5.2,23h.5-.5Z"/>
  <path class="cls-12" d="M13.9,2.7h.4-.4Z"/>
  <path class="cls-11" d="M2.8,13.8h0v.3-.3h0Z"/>
  <path class="cls-11" d="M2.9,13.4v.4-.4Z"/>
  <path class="cls-36" d="M12.9,5.5h-.1.1Z"/>
  <path class="cls-8" d="M11.4,23.1h.1-.1Z"/>
  <path class="cls-11" d="M7.8,23s0-.1,0,0h0Z"/>
  <path class="cls-11" d="M4.5,23h0,0Z"/>
  <path class="cls-12" d="M14.3,2.9s.1,0,.2,0c0,0-.1,0-.2,0Z"/>
  <path class="cls-11" d="M2.9,15.4s0,0,0,.1h0Z"/>
  <path class="cls-11" d="M2.9,8.2s0,0,0,0h0Z"/>
  <path class="cls-34" d="M8.6,26.2v.2-.2Z"/>
  <path class="cls-20" d="M56,2.6c.5.5,1.8.3,1.3,1.7h0c-.8.3-1.6.6-2.5,1-.3,0-.6,0-.9,0h-8.4c-.3,0-.4,0-.6,0-.2,0-.4-.2-.5-.2,0-.2.2-.4.3-.7,0-.4,0-.7,0-1.2.4.3.6.5,1,.8.3-.5.6-1,1-1.5h9.4M46.7,3.8s0,.2-.2.3h.3v-.3h0Z"/>
  <path class="cls-18" d="M62.8,5.4h-1.5c0-.4-.2-.7-.3-1,.3-.1.6-.3,1-.4-.5.9,1.4.3.7,1.4h0Z"/>
  <path class="cls-20" d="M57.3,4.4c1.1.3.2.5.2.8h-.3c0-.2,0-.4,0-.7h0Z"/>
  <path class="cls-9" d="M75,5.5h-.7.7Z"/>
  <path class="cls-9" d="M76.1,5.5h-.7.7Z"/>
  <path class="cls-20" d="M58.3,3.1s0,0-.2-.2h0s0,0,0,.2h.1Z"/>
  <path class="cls-23" d="M60.6,2.8s0,.2.2.3c0,0-.2,0-.3,0,0,0,0,0,0-.2Z"/>
  <path class="cls-21" d="M55.1,5.5h0,0Z"/>
  <path class="cls-13" d="M80.4,9.2c.7,0,1.4,0,2.3-.2.7,0,1.2,0,1.8.2v.4c-.4.8-.7,1.5-1,2.2,0,.5,0,.9,0,1.3-.4,0-.7.1-1,.1-.3-1.2-.8.2-1.1-.2h0v.2c0,.6-.2,1.2-.3,1.6v-.7c0-1.7.4-3.5-.6-4.9h-.2Z"/>
  <path class="cls-4" d="M85.2,9.6v-.4c.3,0,.6-.2.9-.2s.2,0,.2.2c-.2.3-.5.5-.7.6h0c0,0-.3-.2-.4-.2Z"/>
  <path class="cls-33" d="M86.3,9.2h0c.3,0,.6,0,1,0q0,0-.2.2h-.7Z"/>
  <path class="cls-27" d="M92.4,19.4h.2v.4s0-.1-.2-.3h0Z"/>
  <path class="cls-17" d="M93.2,19.3v-.2q0,0,0,.2Z"/>
  <path class="cls-3" d="M82.8,23h4.1c.7.3,1,.6.5,1.2-.3.4-.4,1-.6,1.6h-23.9c-1,0-1.9,0-2.8-.1-.6-.9-1.3-1.6-.7-2.7h19.5c.3.2.5.3.8.5,0,0,0-.1,0-.2.5-.1,1-.3,1.7-.4h1.5Z"/>
  <path class="cls-29" d="M9.5,9.1h.6v2.1c0,.2.1.3.3.5v1.7c-.4.1-.7.3-1.1.5,0-.3.1-.5.1-.6h-.2c-.1.3-.2.5-.4.8.6.1,1.1.2,1.7.3h0v.4h0v.2c.1.8.1,1.4.1,2.1h0v.2c.4.7.8,1.3,1.1,1.9-.5.9-1.1,0-1.8,0h-.3c-.2-.1-.4-.2-.7-.3.2-.2.3-.4.5-.5-.1,0-.2-.1-.2-.1-.5.3-.8.3-1.1-.2-.6-1.1-1.2-2.2-1-3.7.3-1-.2-2.1.8-2.4.1-.5.2-.9.4-1.3.2-.3.5-.6.8-.9h.3c.2-.2.4-.3.5-.5l-.4-.2Z"/>
  <path class="cls-28" d="M11.8,19.4c.6-.6,1.2-1.1,1.8-1.7.4-.7.9-1.1,1.6-1-.6.9-1.1,1.6-1.5,2.3,0,0-.2,0-.3.2-.5.1-1,.2-1.6.1h0Z"/>
  <path class="cls-24" d="M9.3,19.2h.2-.2Z"/>
  <path class="cls-3" d="M23.5,4.6h-.2c-.3-.2-.5-.3-.8-.5,0-.1.1-.4.3-.7,0,0,.1.1.2.2,0-.2,0-.3-.1-.5h-.4v-.3h.2c.4.2.6.3.9.4.1.2.3.3.4.4,0,.2-.1.4-.2.7,0,.2-.1.3-.2.4h0Z"/>
  <path class="cls-14" d="M22.3,2.6v.3c-.9,0-1.7,0-2.6-.3h2.6Z"/>
  <path class="cls-3" d="M21.5,3.9c-.3,0-.5.2-.8.2v-.3c.3,0,.7-.2,1-.2,0,.1,0,.2-.2.4h0Z"/>
  <path class="cls-35" d="M22.8,3.1c0,.1,0,.3.1.4,0,0,0-.1-.1-.2v-.2Z"/>
  <path class="cls-14" d="M16.1,2.8c.1,0,.3-.2.5-.2-.1,0-.3.1-.5.2Z"/>
  <path class="cls-14" d="M17.8,2.7h.1-.1Z"/>
  <path class="cls-27" d="M3.9,9.2h0v-.2s0,0,.2,0h0Z"/>
  <path class="cls-27" d="M8.6,6.2h.1v.2-.2h-.1Z"/>
  <path class="cls-5" d="M14.9,9.2v3.3c0,.2-.2.4-.3.4-.2,0-.4,0-.5-.2-.2-.3-.2-.7-.4-1.2-.5-.7-.9-1.2-1.4-1.7s-.6-.6-.9-.9h2.8c.2,0,.4,0,.7,0v.2Z"/>
  <path class="cls-20" d="M12.4,25.9c.2-1,.2-2.1,1.2-2.7,1.7,0,3.3-.1,5.1-.2h2.1c.4.2.7.3,1,.5.3.3.6.5,1,.8-.4.1-.7.3-1.3.4.5.3.9.5,1.2.8-.3.2-.5.3-.8.3h-9.4M21.2,25.6h0Z"/>
  <path class="cls-10" d="M9.9,10.6c0-.5.1-.9.2-1.5.4-.8.8-.2,1.2,0h0c-.5.6-1,1-1.5,1.5h.1Z"/>
  <path class="cls-36" d="M11.9,5.5c.1,0,.3,0,.4,0-.1,0-.3,0-.4,0Z"/>
  <path class="cls-10" d="M9,9.6v-.5h.4c0,.2-.2.3-.4.5Z"/>
  <path class="cls-15" d="M10.5,24.7c-.1,0-.2-.1-.4-.3.1,0,.2.1.4.3Z"/>
  <path class="cls-15" d="M11.2,5.4h-.9.9Z"/>
  <path class="cls-15" d="M9.7,4.8h0Z"/>
  <path class="cls-34" d="M77.9,26.3v.2h0v-.2Z"/>
  <path class="cls-34" d="M77.1,26h0,0Z"/>
  <path class="cls-35" d="M44.4,5.5h-.9c-.6,0-1.1,0-1.5,0,.5-.4,1-.8,1.5-1.2-1.2.3-.9-.4-.7-1h.4c.3,0,.6.1.8.2v.3c0,.2.2.4.3.7.2,0,.3.1.4.2,0,.2-.2.4-.3.6,0,0,.3,0,.5.2h-.5Z"/>
  <path class="cls-22" d="M44.6,4.5c0,0-.3,0-.4-.2,0-.3-.2-.5-.2-.6v-.3c-.3,0-.5-.1-.8-.2v-.4h0c1.1,0,2.2-.1,3.4-.2-.2.5-.5,1-.8,1.5-.4-.3-.6-.5-1-.8,0,.5,0,.8,0,1.2h-.1Z"/>
  <path class="cls-22" d="M46.8,3.8v.3h-.3s0-.2.3-.3Z"/>
  <path class="cls-21" d="M46.9,5.5h-.5.5Z"/>
  <path class="cls-21" d="M45.6,5.5h0,0Z"/>
  <path class="cls-2" d="M63.3,9.1h3.8c.3,0,.5,0,.8.3q0,.2,0,.4c-.4.2-.7.4-.8.5v9.2h-4.1c0-.3,0-.5.3-.7.2,0,.3-.2.4-.3v-7.5c0-.7-.2-1.1-.8-1.4v-.2s.2-.2.3-.3h0Z"/>
  <path class="cls-8" d="M72,10.1c-.2-.2-.5-.3-.7-.6.5-.2.9-.3,1.5-.5.9,0,1.8,0,2.7.2,0,.4-.2.6-.4.8v-1.1c-1.1.4-2.1.8-3.1,1.2Z"/>
  <path class="cls-26" d="M54.7,9.2c1.1,0,2.2,0,3.4-.2.5,0,1,0,1.5.3,0,.3-.3.6-.6.8v4c0,1.8,0,3.6-.2,5.3h-2.6c-.4,0-.9-.3-1.3-.5.2-.3.3-.5.5-.7v-4.1c0-1.1.2-2.2.2-3.2s-.4-.8-.6-1.1c0-.2-.3-.4-.4-.7h0Z"/>
  <path class="cls-14" d="M79.3,9.3v1.9c0,.3-.2.6-.3.9-.2-.2-.4-.4-.6-.7,0-.1-.2-.3-.3-.6-.5-.4-.9-.6-1.2-1-.3-.3-.4-.6-.6-1h1.4c.6,0,1.1.2,1.6.3v.2Z"/>
  <path class="cls-4" d="M53.3,9c0,1.1-.2,2.1-.4,3.2-.3-.4-.6-.8-.8-1.3s-.4-.8-1-.9c-.3,0-.6-.5-.9-.8.9,0,1.8-.2,2.8-.2h.3Z"/>
  <path class="cls-26" d="M87.9,18.6c0,.1-.2.1-.4.1-.4-.1-.7-.2-1-.3-.2-.4-.3-.8-.3-1.1v-3c0-.2,0-.3,0-.6.8-.5.8-1.1,0-1.6v-.2c.4,0,.6.2.9.2s.5-.2.7-.2v-.3c-1.3,0-.9-.5-.9-.9.5.1.9.2,1.3.3h.4c.3,1,.7,2.1,1,3.2,0,1.7-.6,3.2-1.9,4.4h.1Z"/>
  <path class="cls-4" d="M88.3,11c-.4,0-.8-.2-1.3-.3,0,.3-.4,1,.8.9v.3c-.2,0-.4.2-.7.2s-.5-.2-.9-.3c0-.2,0-.5,0-.8.2-.7.3-1.2.4-1.7,0,0,.3,0,.5,0,.6.5,1.2,1,1.7,1.5h-.4c-.2-.1-.4-.2-.5-.3v.2c.2,0,.4.1.5.2h0Z"/>
  <path class="cls-20" d="M84.6,19.3c-.6,0-1.1.1-1.9.2-.9-.1-1.7-.3-2.4-.5.2-.2.5-.3.7-.4h.3s-.2-.2-.3-.3v-.7c0-.2,0-.3,0-.4.4-.8.9-1.5,1.2-2.4.2-.5,0-1.1,0-1.6h0c.3,0,.6-.1,1.1-.2.3.1.4.2.7.4-.3.1-.5.2-.7.2h0v.2c.4.2.7.3.9.4v5.1h.2Z"/>
  <path class="cls-8" d="M83.7,13.8c.2,0,.4-.1.7-.3-.3-.2-.4-.3-.6-.4,0-.4-.2-.8-.2-1.3.4-.7.7-1.2,1-1.8h0v3.9c-.3,0-.5-.1-.8-.3h0v.2Z"/>
  <path class="cls-20" d="M81.2,15.3v-.3c0-.6.2-1.2.3-1.8h0c.3.3.8-1,1.1.1h0c-.2.1-.3.2-.3.3.3.9-.3,1.3-1,1.7h0Z"/>
  <path class="cls-20" d="M81.5,13.2h0Z"/>
  <path class="cls-4" d="M86.1,12.2c.8.4.9,1,0,1.5v-1.5Z"/>
  <path class="cls-26" d="M86.5,9.2c0,.6-.2,1.1-.3,1.7-.2-.3-.3-.6-.5-.9.2-.3.4-.4.6-.7h.2Z"/>
  <path class="cls-26" d="M85.2,9.7c0,0,.2,0,.4.2,0,0-.2,0-.4-.2Z"/>
  <path class="cls-22" d="M85.2,19.3c0-1.1.8-.5,1.2-.9.4,0,.7.1,1,.3-.3.2-.6.3-.9.5-.4,0-.8.1-1.3.1Z"/>
  <path class="cls-17" d="M82.2,23s.3-.1.5-.2h0c-.2.1-.3.1-.6.1h0Z"/>
  <path class="cls-5" d="M60.2,25.8c-.7,0-1.5,0-2.4.1h-2c.6-.7,1.1-1.2,1.7-1.8l.8-.8c.4,0,.8-.2,1.2-.3-.6,1.1,0,1.9.7,2.7h0Z"/>
  <path class="cls-9" d="M71,23c.2,0,.4-.1.7,0h-.7Z"/>
  <path class="cls-9" d="M69.1,23s.3-.1.5-.1c0,0-.3.1-.5.1Z"/>
  <path class="cls-9" d="M59.6,23h.3-.3Z"/>
  <path class="cls-9" d="M61.5,23h0,0Z"/>
  <path class="cls-9" d="M70.1,23q0-.1,0,0h0Z"/>
  <path class="cls-22" d="M10.2,13.4c0,.2.1.5.1.8-.5,0-1.1-.1-1.7-.3.1-.3.3-.5.4-.8h.2c0,.2,0,.3-.1.6.4-.2.7-.3,1.1-.5v.2Z"/>
  <path class="cls-22" d="M10,11.2c.1,0,.2.2.2.3,0,0-.2-.2-.2-.3Z"/>
  <path class="cls-22" d="M10.2,12.3v.5-.5Z"/>
  <path class="cls-22" d="M10.3,14.7h0q0,.1-.1.1h.1Z"/>
  <path class="cls-22" d="M10.2,17.1h0c0,.1,0,0,0,0Z"/>
  <path class="cls-4" d="M17.8,14.5h.2c.1.2.2.3.2.5-.2.8-.3,1.5-.5,2.1-.3.9,0,1.4.8,1.8v.4h0c-1,.1-2,0-3-.2,1.2-.8,1.6-2.1,2-3.6.2-.4.3-.8.4-1.1h-.1Z"/>
  <path class="cls-14" d="M23.4,2.6c.3,0,.6,0,.9.2,0,.2,0,.4-.2.5-.2,0-.4-.2-.6-.2-.3,0-.5-.2-.8-.4.2,0,.4,0,.7,0Z"/>
  <path class="cls-16" d="M23.5,19.5c-1.1,0-2.2-.2-3.3-.4.8-.6.7-1.3.3-1.9-.2-.3-.8-.3-1.3-.4-.3,0-.6,0-.8-.2,0-.2.1-.4.3-.6h1.6c-.2-.7-.3-1.2-.4-1.7,0-.4,0-.8.1-1.2-.9-1.1-.9-2.5-1.1-3.9.2,0,.3,0,.7,0,1,0,1.9,0,2.7.3,0,1.6,1.2,2.9.5,4.5.2,0,.4,0,.7.2v.2c.4,1.7.3,3.6,1.6,5-.6.2-1.1.3-1.5.4v-.2Z"/>
  <path class="cls-4" d="M24.2,5.6h-1.3c.2-.3.5-.5.7-.8,0-.2,0-.3.2-.4h1.7c.2-.6.4-1.1.5-1.6h.3c0,.6-.2,1.1-.4,1.7h0c-.5.2-.9.3-1.4.5.1.2.2.3.3.5h-.6Z"/>
  <path class="cls-20" d="M25.9,2.6c0,.5-.2,1-.4,1.6h-1.7c0-.2,0-.4.2-.7.1-.1.2-.2.2-.2,0-.2.2-.3.2-.6.5,0,.9-.1,1.5-.1Z"/>
  <path class="cls-35" d="M24.1,3.3v.2c-.2,0-.3-.2-.5-.4.2,0,.3,0,.6.2h-.1Z"/>
  <path class="cls-28" d="M18.2,14.9c0-.1,0-.3-.2-.4,0-.1-.1-.2-.2-.2.2-1,.4-2,.6-3,.7.8.5,1.7.2,2.7,0,.3,0,.4-.1.6,0,.2-.2.3-.2.4h0Z"/>
  <path class="cls-35" d="M22,23h11.5c.3,0,.6,0,.8.2.4.4.7.7,1.1,1.1-.4.2-.7.2-1.1.3v.3l1.3.4s.2-.2.3-.2c-.2-.3-.3-.6-.5-.9,0-.4-.3-.7-.4-1h1.4c-.4.3-.7.5-.2.8.2.1.7.1.7,0,0-.3,0-.6.2-.9h1.5c.2,0,.3,0,.4.1-.3.4-.7.8-1,1.2.7.7.2,1.1-.3,1.5h-.8q.8-.8.5-1.5c0,.2-.2.5-.4.7h0c-.3-.5-.5-.8-.8-.1-.2.3-.3.7-.5,1.1h-1c0-.1-.2-.2-.2-.2,0,0,0,.2,0,.3h-1c-.4,0-.7,0-1.1-.2v-2.2h-.4c-.7.5-1.4,1.1-2.1,1.7h0c-.3.2-.6.4-.8.6h-3.7c-.5,0-1-.1-1.6-.2-.3,0-.6-.1-.9-.2-.4-.2-.8-.4-1.3-.7.5-.2.9-.3,1.3-.4-.4-.3-.7-.5-.9-.9,0-.2.1-.3.2-.4v-.3Z"/>
  <path class="cls-35" d="M21.2,25.5h0Z"/>
  <path class="cls-34" d="M18.5,26.2s.1.1.2.3c0,0-.1-.1-.2-.3Z"/>
  <path class="cls-5" d="M48,9c.6,0,1.1.2,1.6.4,0,1.6-.2,3.1-.2,4.6,0,0,.2.2.3.4v5c-.5.1-1,.1-1.6.2-.9,0-1.7-.2-2.6-.3.3-.5.7-.9.8-1.4v-3.7c-.3-1.6.7-3.4-.7-4.8h0c.8,0,1.6-.2,2.5-.3h0Z"/>
  <path class="cls-13" d="M44.4,9.3c0,1.3,0,2.5-.2,4.1-.4-.4-.6-.6-.9-1-.3-1.2-.8-2.2-1.8-2.7-.2,0-.2-.3-.4-.5.2,0,.5-.3.7-.2.4,0,.8.2,1.2.3.5,0,.8-1.1,1.3,0h.1Z"/>
  <path class="cls-21" d="M44.4,5.6h.3-.3Z"/>
  <path class="cls-20" d="M41.9,5.4c-.2,0-.5,0-.8-.2.3-.6.9-1.5.8-1.6-.7-.6.4-.3.2-.5h.4c0,.6-.5,1.4.8,1.1-.5.4-1,.8-1.5,1.2h0Z"/>
  <path class="cls-11" d="M42.7,3.2h0c0-.2.2-.3.4-.4v.3h-.4Z"/>
  <path class="cls-20" d="M43.9,3.8c0,.1.2.3.2.5,0-.1-.2-.3-.2-.5Z"/>
  <path class="cls-36" d="M63.8,15.5v-.3.3Z"/>
  <path class="cls-36" d="M63.7,18.4v-.2.2Z"/>
  <path class="cls-15" d="M73,19.5c-.6,0-1,0-1.6-.3.5-.6.8-1.3.7-2.1,0-1,0-1.9,0-2.9,0-.8,0-1.5,0-2.4v-.3h0c.3-.2.5-.4.8-.6v1.1c.6-.5,1.2-.9,1.9-1.4h-1.4c-.2,0-.4.2-.7.3h-.7v-.8c1-.4,1.9-.8,3.1-1.3v1.1h0c0,.5.3.9.4,1.4-.4.6-.7,1.1-1.1,1.6h.2c.3.1.6.3.8.4h0c0,.5,0,1,.3,1.6v.4c0,.5,0,1,0,1.6,0,.7.2,1.4.2,2.1-.8,0-1.7.1-2.6.2l-.3.3Z"/>
  <path class="cls-8" d="M72.9,11c-.2.2-.4.4-.7.6,0-.2,0-.3,0-.5h.8Z"/>
  <path class="cls-8" d="M72.1,10.6v.2-.2Z"/>
  <path class="cls-8" d="M72.1,11.6s0,0,0,.2v-.2Z"/>
  <path class="cls-1" d="M55.5,15.9v-1.1,1.1Z"/>
  <path class="cls-1" d="M55.5,17.4c0-.2,0-.4,0-.7,0,.2,0,.4,0,.7Z"/>
  <path class="cls-7" d="M59,10.1v.4-.4Z"/>
  <path class="cls-1" d="M55.4,18.4v-.3.3Z"/>
  <path class="cls-4" d="M77.9,14.2v1.9c-.2.1-.4.1-.5,0-.4-.6-.8-1.1-1.2-1.7.5-.8.9-1.6,1.5-2.5,0,.7.2,1.4.3,2.2h-.1Z"/>
  <path class="cls-18" d="M75.4,13.5c-.3,0-.6-.2-.9-.4h0c.3-.5.7-.9,1-1.5v1.9Z"/>
  <path class="cls-18" d="M75.6,14.2v.9c0-.4-.2-.9-.3-1.4,0,.2.2.3.3.6h0Z"/>
  <path class="cls-8" d="M75.1,10.3h0c0,0,0,0,0,0Z"/>
  <path class="cls-26" d="M88.3,11c-.2,0-.4-.1-.5-.2v-.2c0,0,.3.2.4.3h0Z"/>
  <path class="cls-13" d="M81.2,15.4c.7-.4,1.3-.8,1-1.7,0,0,.2-.2.3-.3v1.6c-.3.8-.7,1.6-1.2,2.4,0-.6,0-1.2,0-1.9M81.8,15.5h0Z"/>
  <path class="cls-13" d="M81,18.7v-.2c0,0,.2,0,.3.2h-.3Z"/>
  <path class="cls-13" d="M81.2,18v-.2.2Z"/>
  <path class="cls-8" d="M83.7,13.8h0Z"/>
  <path class="cls-12" d="M76.1,19.2c.6-.5,1.2-1,1.8-1.6.4-.5.7-1,1-1.5h.4v3.1c-.5.1-.9.1-1.4.1s-1.1-.2-1.7-.3v.2Z"/>
  <path class="cls-13" d="M68.6,18.3c.4-.6.8-1.1,1.2-1.6.2-.3.4-.6.5-1h.4c0,1,0,2,0,3.1v.2c0,.1-.2.2-.3.3h-2.5s0-.1,0-.2c.2-.4.5-.7.8-1v.2Z"/>
  <path class="cls-4" d="M59.6,19.3c0-.3,0-.7.3-.7,1-.4,1.4-1.2,1.7-2.1,0-.2.4-.4.6-.6,0,.3.3.5.4.8v2.5c-1,.1-1.9.2-3,.2h0Z"/>
  <path class="cls-34" d="M58,26.3v-.2.2Z"/>
  <path class="cls-34" d="M28.3,26h.2v.3s-.1-.1-.2-.3Z"/>
  <path class="cls-28" d="M29.1,25.9c.2-.2.4-.4.7-.5.1.2.2.2.3.3l.2-.2c-.1,0-.3-.2-.4-.2l2.1-1.8h.4v2.2c-1,.1-2.1.2-3.2.2h-.1Z"/>
  <path class="cls-25" d="M37.9,25.8c.4-.4.9-.8.2-1.5.4-.4.7-.8,1.1-1.2h2.5c0,.1,0,.2.2.3.6.7-.6.5-.5,1,0,0-.2-.2-.3-.4,0-.2-.3-.4-.4-.6h0v.2c-.2.2-.4.3-.5.4.2.3,0,.5,0,.7,0,.3.2.6.3,1-.7,0-1.4.2-2.1.3-.3,0-.4,0-.6-.1h0Z"/>
  <path class="cls-25" d="M35.9,25.9c0-.4.2-.7.4-1.1.3-.7.6-.4.8.1h0c0-.2.2-.5.4-.7q.4.7-.6,1.5c-.3,0-.6.1-1,0v.2Z"/>
  <path class="cls-25" d="M34.5,25.9v-.3s0,.1,0,.2h-.2.1Z"/>
  <path class="cls-35" d="M40.8,23.5c0,.2.3.3.4.5,0,.1,0,.3.3.4h.4c0,.2-.3.4-.5.9.5-.4.8-.6,1.1-.7.3,0,.6.2.8.3,0,0,.3-.2.5-.2.3,0,.6.1.8.2v-.2c-.3-.1-.5-.3-.8-.5v-.4c.3-.2.6-.3.9-.4,1.3-.1,2.4-.2,3.7-.2h9.1c-.4.5-.7.7-.9,1.1-.5.7-1.4.8-1.7,1.6,0,.3-1.2.1-1.9.2-.4,0-.8,0-1.2-.2h-.5q0,0-.2.2h-.4c0-.1,0-.2-.2-.2,0,0,0,.2,0,.3h-3c-.2,0-.5,0-.8-.1.3-.3.7-.5.9-.6-.3-.5-.5-1-.9-1.7,0,1,0,1.9-1.1,2v.3h-2.3c-.9,0-1.8-.1-2.7-.2-.2-.4-.3-.7-.3-1s0-.4,0-.7c.2-.1.4-.2.5-.4h0M52.4,25.3h0c0-.1,0,0,0,0Z"/>
  <path class="cls-28" d="M45.8,25.9v-.3c1.1-.2,1.2-1.1,1.1-2,.4.7.6,1.2.9,1.7-.2,0-.6.3-.9.6h-1.1Z"/>
  <path class="cls-28" d="M48.2,25.8h.4-.4Z"/>
  <path class="cls-28" d="M50.8,25.9v-.3s0,.1,0,.2h-.2.1Z"/>
  <path class="cls-28" d="M51.7,25.6h.3-.3Z"/>
  <path class="cls-28" d="M51.4,25.8s0-.1,0-.2c0,0,0,.1,0,.2Z"/>
  <path class="cls-6" d="M23,22.9h-.5.5Z"/>
  <path class="cls-28" d="M17.7,14.5c0,.3-.1.6-.3,1,0-.3.1-.6.3-1Z"/>
  <path class="cls-35" d="M42.1,3.1c.3.3-.9,0-.2.6,0,0-.5,1-.8,1.5-1,0-1.9.2-2.8.3h-9.8c-.6,0-1.2,0-1.9,0v-1.1h-.7c.1-.5.3-1,.4-1.6.6,0,1.2-.1,1.9-.1,0,0,.1,0,.1.1.2.2.4.4.7.5,0-.2.1-.4.2-.5h2.8c0,.2,0,.4-.1.6h.1c.2-.2.5-.5.7-.7h.3c1.2,0,2.2.1,3.5.2.2.2.3.4.2.6-.5.6-.3,1,.5,1.1.2-.6.5-1.2.7-1.8h2.7c.5,0,.9.2,1.5.4M26.7,3.5h.1-.1Z"/>
  <path class="cls-16" d="M28.6,13.4c-.3-.5-.7-1.1-1-1.6-.6-.7-1.2-1.5-1.8-2.3v-.2h0c.1,0,.2,0,.2-.2h2.5c.7,0,1.2.2,1.7.3v.8c.5.7,1,1.3,1.5,1.9.5.7,1,1.5,1.5,2.3h0c.2,1,.5,1.9.8,2.8v.9c-.2.6.3,1.4-.8,1.4s-1-.2-1.4-.3c-1-1.9-2-3.8-3.1-5.7v-.2c.3,0,.6-.2,1.1-.3-.6-.2-.9-.3-1.3-.4v.7h-.2M29.5,12.4s.1.1.2.2h0s-.1-.1-.3-.1h0Z"/>
  <path class="cls-4" d="M25.9,4.4h.7v1.1h-.6c-.3-.2-.4-.2-.7-.4.3,0,.5-.2.7-.2h0v-.6h-.1Z"/>
  <path class="cls-35" d="M25.9,4.4v.3h0c-.2,0-.4,0-.6.3.3,0,.4.2.6.3h-1c-.2,0-.3-.3-.4-.5.5-.2.9-.3,1.4-.5h0Z"/>
  <path class="cls-32" d="M25.9,9s0,0-.2.2c0,0,0,0,.2-.2Z"/>
  <path class="cls-32" d="M25.7,9.2h0c0,0-.1,0-.2,0,0,0,0,0,.1-.2h.1Z"/>
  <path class="cls-25" d="M35.4,24.1c.2.3.3.6.5.9,0,0-.2.2-.3.2l-1.3-.4v-.3c.4,0,.7-.2,1.1-.3t0,0h0Z"/>
  <path class="cls-25" d="M36.4,23.1h.6v.9h-.7c-.5-.3-.2-.5.2-.8h0Z"/>
  <path class="cls-25" d="M34.3,23.1h.6c.2.3.4.7.5,1h0c-.4-.3-.7-.6-1.1-1Z"/>
  <path class="cls-9" d="M30.9,23h1.6-1.6Z"/>
  <path class="cls-14" d="M40.6,2.6h-.3.3Z"/>
  <path class="cls-14" d="M37.9,2.6c-.2.6-.4,1.2-.6,1.8-.8-.2-1-.5-.5-1.1v-.5c.3,0,.7-.1,1.2-.2h-.1Z"/>
  <path class="cls-13" d="M29.1,2.6v.6c-.2-.1-.4-.3-.7-.5h.8,0Z"/>
  <path class="cls-34" d="M32.7,2.6c-.2.3-.4.5-.7.7h-.1c0-.2.2-.4.2-.6h.6Z"/>
  <path class="cls-34" d="M31.2,2.6h-.4.7-.4.1Z"/>
  <path class="cls-12" d="M38.4,9.4c.7,0,1.5-.2,2.2-.2-.8.6-1,1.4-.9,2.3v4.7c0,.5-.2,1-.4,1.5-.2-.2-.5-.3-.7-.4,0,.2,0,.3,0,.5.3,0,.6,0,.9.2v.2c0,.2,0,.3-.2.4h0c0-.2,0-.3,0-.5.2.1.4.3.6.5-.4.3-.8.5-1.1.7h0c-.2-.1-.5-.2-.7-.3-.6-.6-1.2-1.1-1.5-1.8-.4-.9-.4-1.9-.6-2.9.3-1.9.7-3.6,2.4-4.8h0Z"/>
  <path class="cls-8" d="M72.9,11c.2,0,.4-.2.6-.3h1.4c-.7.5-1.3.9-1.9,1.4v-1.1h0Z"/>
  <path class="cls-18" d="M75.4,15.6v1.4-1.4Z"/>
  <path class="cls-18" d="M74.5,13.2h0Z"/>
  <path class="cls-14" d="M50.3,19.4v-.7c1.4-.3,1.9-1.5,2.7-2.5.2.5.4,1.1.4,1.6v1.4c0,.2-.2.2-.4.3-1,0-1.9,0-2.9-.2h.2Z"/>
  <path class="cls-29" d="M52,14.2v2h-.4c-.4-.6-.8-1.3-1.2-2,.3-.5.7-.9,1-1.3h.3c0,.4,0,.7.2,1.1v.2Z"/>
  <path class="cls-20" d="M81.8,15.5h0Z"/>
  <path class="cls-31" d="M29.9,25.2c.1,0,.3.2.4.3l-.2.2s-.2-.2-.2-.4c0,0,0-.1,0,0h0Z"/>
  <path class="cls-18" d="M41.9,23.4c.2-.1.4-.2.7-.1.5.2.9.3,1.3.5v.4c0,.2,0,.4,0,.5,0,0-.3.3-.4.2-.3,0-.5-.2-.9-.3-.2,0-.4-.1-.5-.2h-.4c-.2-.4,1-.2.3-.9h0Z"/>
  <path class="cls-19" d="M40,23h0Z"/>
  <path class="cls-35" d="M40.8,23.5h0Z"/>
  <path class="cls-19" d="M39.6,23q0-.1,0,0h0Z"/>
  <path class="cls-35" d="M37.1,25h0Z"/>
  <path class="cls-4" d="M43.9,23.7c-.5,0-.9-.2-1.3-.3.7-.1,1.4-.2,2.1-.1-.2.2-.5.3-.8.5h0Z"/>
  <path class="cls-4" d="M43.8,24.6v-.4c.3,0,.6.2.9.4v.2c-.3,0-.5-.1-.8-.2h-.1Z"/>
  <path class="cls-25" d="M41.9,24.4h.4c-.2.2-.5.4-1,.8.3-.5.4-.6.5-.9h0Z"/>
  <path class="cls-6" d="M49.3,23h.7-.7Z"/>
  <path class="cls-28" d="M52.4,25.3h0q0-.1,0,0Z"/>
  <path class="cls-9" d="M50.4,23s0-.1,0,0h0Z"/>
  <path class="cls-14" d="M28.7,19.3h-2.9c.7-.9,1.1-2,1.3-3.3.2-.3.3-.4.5-.6h0c0,.2,0,.3.1.5.2.9.4,1.6.7,2.5.2.3.3.5.4.7v.2Z"/>
  <path class="cls-9" d="M34.2,5.5h-.3.3Z"/>
  <path class="cls-9" d="M36.2,5.5s0,0,0,0h0Z"/>
  <path class="cls-13" d="M26.8,3.5h0Z"/>
  <path class="cls-13" d="M26.8,3.5h0Z"/>
  <path class="cls-13" d="M31.2,2.6h.1-.1Z"/>
  <path class="cls-28" d="M27.7,14c0,.5-.1.9-.2,1.4-.1.2-.3.3-.5.6-.1-.5-.2-1-.3-1.6v-2.1c.9.3.8,1,.8,1.7h.2Z"/>
  <path class="cls-11" d="M29.6,12.3c.1,0,.2,0,.2.2h0s-.1-.1-.2-.2Z"/>
  <path class="cls-19" d="M34.1,17.2s0,.1,0,.3c0,0,0-.1,0-.3Z"/>
  <path class="cls-4" d="M33.6,14c0-.4-.2-.8-.2-1.1,0-1.3,0-2.6-1.1-3.6.3-.2.7-.2,1.1-.3.7,0,1.2,0,1.9.3-1.3,1.2-1.1,2.8-1.1,4.4s-.3.3-.6.4h0Z"/>
  <path class="cls-35" d="M25.9,4.8h0Z"/>
  <path class="cls-14" d="M38.3,19.1h0c.2-.1.4,0,.7.2h-.3s0-.1-.2-.2h-.2Z"/>
  <path class="cls-4" d="M41.2,19.2c.7-.6,1.5-1.2,2.2-1.8.4,0,.5.7.2,1.1-.2.2-.5.4-.8.7-.6,0-1.1,1.1-1.6,0Z"/>
  <path class="cls-14" d="M40,18.6c.2.1.4.3.7.6-.5,1-1.1.1-1.7.1.3-.3.7-.4,1.1-.7h0Z"/>
  <path class="cls-14" d="M39.3,17.8v.2c-.3,0-.6,0-.9-.1,0-.2,0-.3,0-.5.2.1.4.2.7.4h.1Z"/>
  <path class="cls-14" d="M39.3,18.2v.5h0c0-.1,0-.3.2-.4h-.1Z"/>
  <path class="cls-28" d="M27.5,15.6s.1.2.1.4c0,0-.1-.2-.1-.4Z"/>
</svg>