<?xml version="1.0" encoding="utf-8"?>
<!-- Generator: Adobe Illustrator 25.1.0, SVG Export Plug-In . SVG Version: 6.00 Build 0)  -->
<svg version="1.1" id="Layer_1" xmlns="http://www.w3.org/2000/svg" xmlns:xlink="http://www.w3.org/1999/xlink" x="0px" y="0px"
	 viewBox="0 0 1920 1080" style="enable-background:new 0 0 1920 1080;" xml:space="preserve">
<style type="text/css">
	.st0{fill:#636465;}
	.st1{fill:#636465;stroke:#636465;stroke-miterlimit:10;}
	.st2{fill:none;stroke:#636465;stroke-miterlimit:10;}
</style>
<path class="st0" d="M10.3,17.4H9v-1.2h1.2V17.4z M9,13H7.8v3.1H9V13z M14,11.8h-1.2v2.5H14V11.8z M12.8,10.6h-1.2v1.2h1.2V10.6z
	 M5.3,11.8H4.1V13h1.2V11.8z M4.1,10.6H2.9v1.2h1.2V10.6z M8.4,7.5h1.2V6.2H8.4V7.5z M3.8,7.2V9h1.9V7.2H3.8z M6.6,9.9H2.9V6.2h3.7
	V9.9z M3.8,14.6v1.9h1.9v-1.9H3.8z M6.6,17.4H2.9v-3.7h3.7V17.4z M11.2,7.2V9h1.9V7.2H11.2z M14,9.9h-3.7V6.2H14V9.9z M12.8,16.1
	v-1.9h-2.5v1.2h1.2v1.9H14v-1.2H12.8z M11.5,11.8H9V13h2.5V11.8z M9,10.6H5.3v1.2h1.2V13h1.2v-1.2H9V10.6z M9.7,9.9V8.7H8.4V7.5H7.2
	v2.5H9.7z M5.2,7.6h-1v0.9h0.9L5.2,7.6L5.2,7.6z M5.2,15h-1v0.9h0.9L5.2,15L5.2,15z M12.6,7.6h-0.9v0.9h0.9V7.6z"/>
<rect x="16" y="6.7" class="st1" width="3.8" height="1.3"/>
<rect x="16" y="10.7" class="st1" width="2.3" height="1.4"/>
<rect x="16" y="14.8" class="st1" width="4.6" height="1.4"/>
<g>
	<path class="st2" d="M23.4,16.9c0,1-0.6,1.9-1.3,1.9L2.4,18.9c-0.7,0-1.3-0.8-1.3-1.9V6.4c0-1.1,0.6-1.9,1.3-1.9l19.8-0.1
		c0.7,0,1.3,0.8,1.3,1.9L23.4,16.9z"/>
</g>
</svg>
