<?xml version="1.0" encoding="utf-8"?>
<!-- Generator: Adobe Illustrator 25.1.0, SVG Export Plug-In . SVG Version: 6.00 Build 0)  -->
<svg version="1.1" id="Layer_1" xmlns="http://www.w3.org/2000/svg" xmlns:xlink="http://www.w3.org/1999/xlink" x="0px" y="0px"
	 viewBox="0 0 1920 1080" style="enable-background:new 0 0 1920 1080;" xml:space="preserve">
<style type="text/css">
	.st0{fill:#636465;}
	.st1{fill:#636465;stroke:#636465;stroke-miterlimit:10;}
	.st2{fill:none;stroke:#636465;stroke-miterlimit:10;}
</style>
<path class="st0" d="M12.1,22.1h-1.6v-1.5H12v1.5H12.1z M10.4,16.6H8.9v3.9h1.5V16.6z M16.7,15h-1.5v3.1h1.5V15z M15.2,13.5h-1.5V15
	h1.5V13.5z M5.8,15H4.3v1.5h1.5V15z M4.3,13.5H2.8V15h1.5C4.3,15,4.3,13.5,4.3,13.5z M9.7,9.7h1.5V8H9.7V9.7z M3.9,9.3v2.3h2.4V9.3
	H3.9z M7.4,12.7H2.8V8h4.6C7.4,8,7.4,12.7,7.4,12.7z M3.9,18.6v2.4h2.4v-2.4H3.9z M7.4,22.1H2.8v-4.6h4.6
	C7.4,17.4,7.4,22.1,7.4,22.1z M13.2,9.3v2.3h2.4V9.3H13.2z M16.7,12.7h-4.6V8h4.6V12.7z M15.2,20.4v-2.4h-3.1v1.5h1.5v2.4h3.1v-1.5
	H15.2z M13.6,15h-3.1v1.5h3.1V15z M10.4,13.5H5.8V15h1.5v1.5h1.5V15h1.6V13.5z M11.3,12.7v-1.5H9.7V9.7H8.2v3.1h3.1V12.7z M5.7,9.8
	H4.4v1.1h1.1L5.7,9.8L5.7,9.8z M5.7,19.1H4.4v1.1h1.1L5.7,19.1L5.7,19.1z M15,9.8h-1.1v1.1H15V9.8z"/>
<rect x="19.2" y="8.7" class="st1" width="4.8" height="1.6"/>
<rect x="19.2" y="13.7" class="st1" width="2.9" height="1.8"/>
<rect x="19.2" y="18.8" class="st1" width="5.8" height="1.8"/>
<g>
	<path class="st2" d="M28.5,21.4c0,1.3-0.8,2.4-1.6,2.4L2.2,24c-0.9,0-1.6-1-1.6-2.4V8.3c0-1.4,0.8-2.4,1.6-2.4L27,5.8
		c0.9,0,1.6,1,1.6,2.4L28.5,21.4z"/>
</g>
</svg>
